#!OML:ASF E:\inclinewalkrobotboard\Project 1\Capture day 1\Session 1\subject1.ASF
:FULLY-SPECIFIED
:DEGREES
302
root 8.7179 25.1655 -0.22521 -163.973 1.24488 -183.556
lowerback 5.93089 -1.13091 -6.48078
upperback 4.49025 -1.47649 2.19692
thorax 1.58214 -0.798448 6.00077
lowerneck -7.57145 -0.305045 -2.88579
upperneck 24.7115 1.22564 2.10746
head 8.93536 1.09634 1.41965
rclavicle 1.72943e-014 2.54444e-014
rhumerus -42.3811 -32.8436 -62.6376
rradius 21.1976
rwrist 21.4702
rhand -11.5896 -35.9803
rfingers 7.12502
rthumb 14.4525 -65.457
lclavicle 1.72943e-014 2.54444e-014
lhumerus -25.6911 -2.25813 89.4579
lradius 28.6271
lwrist -19.0113
lhand -29.998 -20.8145
lfingers 7.12502
lthumb -3.3155 9.13947
rfemur -45.5116 5.04898 18.1475
rtibia 41.1298
rfoot -29.8697 -5.56456
rtoes -9.53891
lfemur -16.0443 -5.39833 -25.2531
ltibia 39.0639
lfoot -4.41755 0.0662173
ltoes -66.7928
303
root 8.74232 25.2676 -0.383962 -164.413 0.789691 -183.576
lowerback 6.24955 -1.45346 -6.19443
upperback 4.60958 -1.88479 2.46251
thorax 1.59135 -0.993352 6.14055
lowerneck -8.05802 -0.103979 -3.5054
upperneck 25.1574 1.73154 1.83144
head 9.17049 1.25109 1.49511
rclavicle -1.51076e-014 1.35174e-014
rhumerus -39.5754 -30.7434 -64.7583
rradius 21.7154
rwrist 20.5538
rhand -11.5498 -36.2286
rfingers 7.12502
rthumb 14.4908 -65.7026
lclavicle -1.51076e-014 1.35174e-014
lhumerus -26.3519 -0.652847 89.1983
lradius 28.379
lwrist -19.1164
lhand -29.6581 -20.7045
lfingers 7.12502
lthumb -2.9873 9.25437
rfemur -43.2437 4.54702 18.3769
rtibia 39.355
rfoot -30.0814 -5.30022
rtoes -9.4258
lfemur -18.9123 -4.98946 -25.0936
ltibia 44.6335
lfoot -2.45636 -0.23349
ltoes -66.3345
304
root 8.77075 25.3613 -0.534485 -164.73 0.542451 -183.6
lowerback 6.53899 -1.71248 -5.96752
upperback 4.60369 -2.22353 2.6706
thorax 1.47511 -1.15189 6.25379
lowerneck -8.3259 0.00135492 -5.27114
upperneck 25.1179 1.84649 3.13367
head 9.17431 1.26466 2.25536
rclavicle -1.23246e-014 3.57812e-014
rhumerus -37.0241 -27.9735 -66.9337
rradius 22.393
rwrist 19.0768
rhand -11.9928 -36.3331
rfingers 7.12502
rthumb 14.0639 -65.8373
lclavicle -1.23246e-014 3.57812e-014
lhumerus -26.9874 1.00498 88.8342
lradius 28.0709
lwrist -19.3832
lhand -29.3353 -20.6832
lfingers 7.12502
lthumb -2.67552 9.27977
rfemur -41.2689 4.20682 18.5694
rtibia 37.792
rfoot -30.3959 -5.01607
rtoes -9.70205
lfemur -21.4889 -4.78572 -25.0612
ltibia 49.1902
lfoot -2.27818 0.298373
ltoes -66.7151
305
root 8.80408 25.4401 -0.683255 -164.986 0.813675 -183.443
lowerback 6.40328 -1.4699 -5.88608
upperback 4.58824 -1.89167 2.79366
thorax 1.48457 -0.985812 6.31992
lowerneck -8.02066 -0.0589255 -5.30725
upperneck 25.2677 1.90379 2.78486
head 9.17402 1.271 2.1498
rclavicle -1.59028e-014 -1.11319e-014
rhumerus -35.459 -25.6101 -68.5936
rradius 23.5123
rwrist 17.0683
rhand -12.473 -36.256
rfingers 7.12502
rthumb 13.6012 -65.7917
lclavicle -1.59028e-014 -1.11319e-014
lhumerus -27.3852 2.05852 88.4994
lradius 27.5375
lwrist -19.7837
lhand -28.7206 -21.0196
lfingers 7.12502
lthumb -2.08184 8.95001
rfemur -39.5255 4.3043 18.9213
rtibia 36.3324
rfoot -30.5356 -4.6604
rtoes -10.1037
lfemur -24.158 -4.00756 -24.8912
ltibia 53.2978
lfoot -4.27728 1.11319
ltoes -66.3153
306
root 8.84173 25.5068 -0.826847 -165.221 1.3789 -183.074
lowerback 6.14282 -1.14512 -5.80299
upperback 4.62287 -1.44056 2.96881
thorax 1.59882 -0.764353 6.43272
lowerneck -8.12916 -0.0309519 -4.78929
upperneck 25.7588 2.19659 1.82247
head 9.3778 1.37671 1.77632
rclavicle -2.3059e-014 4.45278e-014
rhumerus -33.8279 -23.4937 -70.0369
rradius 24.5118
rwrist 15.2631
rhand -12.8981 -36.2222
rfingers 7.12502
rthumb 13.1915 -65.7849
lclavicle -2.3059e-014 4.45278e-014
lhumerus -27.9786 3.28571 88.0455
lradius 27.234
lwrist -20.3288
lhand -28.2242 -21.6766
lfingers 7.12502
lthumb -1.6024 8.29715
rfemur -37.9117 4.57573 19.5613
rtibia 34.9093
rfoot -30.4122 -4.30339
rtoes -11.1101
lfemur -26.8891 -2.84041 -24.4737
ltibia 56.7967
lfoot -6.19829 1.46617
ltoes -66.1281
307
root 8.87253 25.5717 -0.962129 -165.507 1.2793 -182.924
lowerback 6.09443 -0.80231 -5.44114
upperback 4.66391 -0.958336 2.92934
thorax 1.58184 -0.509921 6.16221
lowerneck -8.37623 -0.35698 -4.52442
upperneck 26.0037 1.71725 1.88441
head 9.52918 1.19269 1.71408
rclavicle 1.03368e-014 2.8625e-014
rhumerus -32.5023 -22.5372 -71.2015
rradius 25.4756
rwrist 13.7686
rhand -13.3625 -36.2504
rfingers 7.12502
rthumb 12.7438 -65.8415
lclavicle 1.03368e-014 2.8625e-014
lhumerus -28.3778 3.22035 87.6581
lradius 26.8057
lwrist -20.5183
lhand -28.2389 -21.9531
lfingers 7.12502
lthumb -1.61669 8.02051
rfemur -36.1649 4.2512 19.9904
rtibia 33.4329
rfoot -30.2541 -4.08608
rtoes -12.22
lfemur -29.7498 -2.42529 -24.1727
ltibia 59.7864
lfoot -8.04665 2.10905
ltoes -66.4167
308
root 8.90601 25.636 -1.09215 -165.907 1.08738 -182.978
lowerback 6.3318 -0.692046 -5.46575
upperback 4.59738 -0.821717 3.01802
thorax 1.36289 -0.433021 6.26788
lowerneck -8.37399 -0.564534 -4.98646
upperneck 26.1989 1.45658 2.25049
head 9.6027 1.07768 1.89974
rclavicle 1.19271e-014 3.73715e-014
rhumerus -31.2022 -20.7134 -72.283
rradius 26.5143
rwrist 12.1172
rhand -13.729 -36.2325
rfingers 7.12502
rthumb 12.3904 -65.8453
lclavicle 1.19271e-014 3.73715e-014
lhumerus -28.9257 4.06837 87.2346
lradius 26.3308
lwrist -20.5323
lhand -27.9205 -21.8514
lfingers 7.12502
lthumb -1.30917 8.12437
rfemur -34.3127 4.01708 20.148
rtibia 32.0133
rfoot -30.1703 -3.83729
rtoes -11.8821
lfemur -32.4681 -2.30496 -24.0548
ltibia 62.0048
lfoot -9.57056 2.71499
ltoes -66.4771
309
root 8.92054 25.7043 -1.26596 -167.046 1.61622 -182.806
lowerback 6.71353 -0.298744 -5.09517
upperback 4.9366 -0.246574 2.8979
thorax 1.41305 -0.123877 5.90314
lowerneck -7.92219 -0.552242 -5.07011
upperneck 26.1154 1.45894 2.45375
head 9.48372 1.11003 1.9803
rclavicle 4.77083e-015 3.57812e-014
rhumerus -29.9422 -19.7941 -73.2538
rradius 27.3461
rwrist 10.7731
rhand -14.5749 -35.6392
rfingers 7.12502
rthumb 11.5747 -65.2995
lclavicle 4.77083e-015 3.57812e-014
lhumerus -29.5251 4.36662 86.6878
lradius 26.1877
lwrist -20.2052
lhand -27.3242 -21.4939
lfingers 7.12502
lthumb -0.733225 8.48456
rfemur -31.4518 4.27966 20.4747
rtibia 30.3443
rfoot -30.0907 -3.43593
rtoes -11.5194
lfemur -33.7386 -1.76524 -23.9131
ltibia 62.7814
lfoot -11.1479 3.50273
ltoes -66.311
310
root 8.94699 25.7581 -1.40105 -167.343 1.57302 -182.645
lowerback 6.59034 -0.138942 -4.68778
upperback 4.99065 -0.00351184 2.82924
thorax 1.49764 0.00796486 5.58423
lowerneck -8.42728 -0.785414 -5.08409
upperneck 26.6082 1.17203 2.5907
head 9.76789 0.998627 2.02036
rclavicle 1.98785e-015 -4.21423e-014
rhumerus -28.4231 -19.1294 -74.2792
rradius 27.837
rwrist 9.85345
rhand -15.4545 -35.222
rfingers 7.12502
rthumb 10.7264 -64.9282
lclavicle 1.98785e-015 -4.21423e-014
lhumerus -30.284 4.61077 86.0721
lradius 26.3039
lwrist -19.9749
lhand -27.0504 -20.6797
lfingers 7.12502
lthumb -0.468736 9.29954
rfemur -29.8356 4.35602 20.8261
rtibia 29.0386
rfoot -30.0442 -3.72902
rtoes -12.3024
lfemur -36.4534 -1.73696 -23.5435
ltibia 63.716
lfoot -12.6633 4.07582
ltoes -66.0418
311
root 8.9756 25.8078 -1.52046 -167.589 1.31973 -182.468
lowerback 6.43015 -0.0533983 -4.26276
upperback 5.09847 0.148227 2.76655
thorax 1.67457 0.0938411 5.26831
lowerneck -8.64525 -0.891619 -4.85082
upperneck 26.8128 0.988582 2.68453
head 9.89019 0.952776 2.00219
rclavicle -5.96354e-015 -7.15625e-015
rhumerus -26.7745 -18.3918 -75.38
rradius 28.4591
rwrist 9.15008
rhand -15.2903 -35.8555
rfingers 7.12502
rthumb 10.8848 -65.5534
lclavicle -5.96354e-015 -7.15625e-015
lhumerus -30.6907 5.05535 85.3641
lradius 26.1084
lwrist -20.0421
lhand -27.1381 -20.4264
lfingers 7.12502
lthumb -0.55343 9.55264
rfemur -28.3917 4.34857 21.2275
rtibia 27.9171
rfoot -29.7301 -3.31382
rtoes -9.48667
lfemur -39.4089 -1.9006 -23.0646
ltibia 64.5715
lfoot -14.7137 4.94704
ltoes -66.0495
312
root 9.00275 25.85 -1.64177 -168.026 1.25563 -182.517
lowerback 6.56468 0.130865 -4.27331
upperback 5.18646 0.403765 2.73686
thorax 1.66074 0.226796 5.23047
lowerneck -8.95437 -0.998491 -3.98345
upperneck 27.5084 1.08391 1.65906
head 10.2131 1.00013 1.52551
rclavicle 1.23246e-014 2.8625e-014
rhumerus -25.4246 -17.5524 -76.1874
rradius 29.2251
rwrist 8.4302
rhand -14.8357 -36.4841
rfingers 7.12502
rthumb 11.3232 -66.1584
lclavicle 1.23246e-014 2.8625e-014
lhumerus -31.0101 5.82508 84.6854
lradius 25.6436
lwrist -20.2797
lhand -27.1395 -20.4293
lfingers 7.12502
lthumb -0.55483 9.54976
rfemur -26.8491 4.34384 21.3454
rtibia 26.9333
rfoot -29.8513 -3.82869
rtoes -11.1602
lfemur -41.7476 -2.11599 -22.8103
ltibia 64.3606
lfoot -16.028 5.56439
ltoes -65.7538
